# xmcd
#
# Track frame offsets:
#	150
#	16635
#	31555
#	43752
#	62340
#	77385
#	91055
#	106197
#	123270
#	139342
#	154627
#	172845
#	183897
#	199970
#
# Disc length: 2821 seconds
#
# Revision: 1
# Processed by: cddbd v1.4PL0 Copyright (c) Steve Scherf et al.
# Submitted via: audiograbber 1.80
#
DISCID=960b030e
DTITLE=Various Artist - Country Ladies' Best
DYEAR=1900
DGENRE=
TTITLE0=Barbara Mandrell - I Was Country When Country Wasn't Cool
TTITLE1=Dolly Parton - But You Know I Love You
TTITLE2=Tanya Tucker - Strong Enough To Bend
TTITLE3=Crystal Gayle - Half The Way
TTITLE4=Sylvia - Nobody
TTITLE5=Deborah Allen - I've Been Wrong Before
TTITLE6=Louise Mandrell - I Wanna Say Yes
TTITLE7=K.T. Oslin - Come Next Monday
TTITLE8=Emmylou Harris - (Lost In His Love) On Our Last Date
TTITLE9=The Judds - Have Mercy
TTITLE10=Juice Newton - Break It To Me Gently
TTITLE11=The Forester Sisters - Just In Case
TTITLE12=Lorrie Morgan - Five Minutes
TTITLE13=Martina McBride - My Baby Loves Me
EXTD=
EXTT0=
EXTT1=
EXTT2=
EXTT3=
EXTT4=
EXTT5=
EXTT6=
EXTT7=
EXTT8=
EXTT9=
EXTT10=
EXTT11=
EXTT12=
EXTT13=
PLAYORDER=
